<svg xmlns="http://www.w3.org/2000/svg" viewBox="0 0 2359.03 3037.57"><title>muclogo</title><path d="M1970,637L1863.64,512.16l-87.43-78.59-92.46-79.51L1627.2,139.74l-23.62-13.37L1505,9.05l1.56,14.08L1225.74,70.58,932.61,41.26,849.42,4.63,749.94,122.41,723.48,135,675.1,337.34l-40.67,89.5-79.31,61.69-68,27.7s-118,104-124.64,98.2c-2.06-1.81-8.07,8.07-15.37,22.56H1970Z" style="fill:#fff;fill-rule:evenodd"/><path d="M1970,637L1863.64,512.16l-87.43-78.59-92.46-79.51L1627.2,139.74l-23.62-13.37L1505,9.05l1.56,14.08L1225.74,70.58,932.61,41.26,849.42,4.63,749.94,122.41,723.48,135,675.1,337.34l-40.67,89.5-79.31,61.69-68,27.7s-118,104-124.64,98.2c-2.06-1.81-8.07,8.07-15.37,22.56H1970Z" style="fill:none;stroke:#3b3a39;stroke-miterlimit:22.92558479309082;stroke-width:0.2160000056028366px"/><path d="M461.82,2385.39l-1,93.24,231.4,154.25s-56.85,195.76-77,185.58S651.9,2989.9,651.9,2989.9l323.38-1.65s138-62.49,138.68-41,119.61-34.39,118.9-6.61,105.6-15.19,102.39,9.91,97,60.55,97,60.55l272.47-21.26,73.37-119.5-95.33-221.28,189-135.39,30.12-111.86-93.34-122.55c255.53-232.76,445.58-513,470.81-912.81l77.47-154-146.31-65.25-94.86-265.7-80.78-169.76L1971.14,637H348.21c-16.2,32.15-38.77,87-38.77,87l-55.39,91.9-32.73,76.8-26.44,80.57-29,89.43-18,55.44-18,55.44-1.28,1.78-8.76,3.28-16.55-.23s-27.58,2.45-31.87,2.45-26.35,8-33.1,12.26-12.87,1.23-12.87,12.87-2.61,11.07,4.21,20.69S40.16,1255,40.16,1255l21.45,36.77,15.66,74.75c32,450.84,234.83,710,466.54,926.9Z" style="fill:#fff;fill-rule:evenodd"/><polygon points="1736.2 540.76 1627.2 139.74 1623.03 137.38 1732.75 540.76 1736.2 540.76" style="fill:#ee7c00;fill-rule:evenodd"/><polygon points="623.61 538.18 722.75 135.33 726.26 133.64 627.06 538.18 623.61 538.18" style="fill:#ee7c00;fill-rule:evenodd"/><polygon points="1691.89 527.39 1579.06 97.3 1574.97 92.46 1688.44 527.39 1691.89 527.39" style="fill:#ee7c00;fill-rule:evenodd"/><polygon points="1698.79 527.39 1587.23 106.99 1583.15 102.15 1695.34 527.39 1698.79 527.39" style="fill:#ee7c00;fill-rule:evenodd"/><polygon points="1705.68 527.39 1595.41 116.68 1591.32 111.84 1702.23 527.39 1705.68 527.39" style="fill:#ee7c00;fill-rule:evenodd"/><polygon points="1712.58 527.39 1603.59 126.37 1599.5 121.53 1709.13 527.39 1712.58 527.39" style="fill:#ee7c00;fill-rule:evenodd"/><polygon points="1659.39 489.13 1546.56 59.04 1542.48 54.2 1655.94 489.13 1659.39 489.13" style="fill:#ee7c00;fill-rule:evenodd"/><polygon points="1666.29 489.13 1554.74 68.73 1550.65 63.88 1662.84 489.13 1666.29 489.13" style="fill:#ee7c00;fill-rule:evenodd"/><polygon points="1673.19 489.13 1562.91 78.42 1558.83 73.58 1669.74 489.13 1673.19 489.13" style="fill:#ee7c00;fill-rule:evenodd"/><polygon points="1680.09 489.13 1571.09 88.11 1567 83.27 1676.64 489.13 1680.09 489.13" style="fill:#ee7c00;fill-rule:evenodd"/><polygon points="670.77 525.64 772.43 95.77 776.51 90.92 674.21 525.64 670.77 525.64" style="fill:#ee7c00;fill-rule:evenodd"/><polygon points="663.87 525.64 764.25 105.45 768.34 100.61 667.32 525.64 663.87 525.64" style="fill:#ee7c00;fill-rule:evenodd"/><polygon points="656.97 525.64 756.08 115.14 760.16 110.3 660.42 525.64 656.97 525.64" style="fill:#ee7c00;fill-rule:evenodd"/><polygon points="650.07 525.64 747.9 124.83 751.99 119.99 653.52 525.64 650.07 525.64" style="fill:#ee7c00;fill-rule:evenodd"/><polygon points="703.26 487.38 804.92 57.5 809.01 52.66 706.71 487.38 703.26 487.38" style="fill:#ee7c00;fill-rule:evenodd"/><polygon points="696.36 487.38 796.75 67.19 800.84 62.35 699.81 487.38 696.36 487.38" style="fill:#ee7c00;fill-rule:evenodd"/><polygon points="689.47 487.38 788.57 76.88 792.66 72.04 692.91 487.38 689.47 487.38" style="fill:#ee7c00;fill-rule:evenodd"/><polygon points="682.57 487.38 780.4 86.57 784.48 81.73 686.02 487.38 682.57 487.38" style="fill:#ee7c00;fill-rule:evenodd"/><path d="M739.85,2566.94l-24.67,58.45c3,5.55,3.24,5.66,4.31,6.17q13.39-33.7,26.78-67.32l-1.8-.22q-2.35,1.45-4.63,2.92m-28.9,47.44L727,2576.25C715.5,2586,708.23,2597.66,710.95,2614.38Zm-30.34-435.84-21,49.86a13.46,13.46,0,0,0,4.92,4.14q10.91-27.11,21.67-54.14A12.34,12.34,0,0,0,680.61,2178.54ZM655,2218.13l14.75-34.94c-6.2,3.68-12,8.62-14.71,12.2C653.3,2200.89,653,2210.12,655,2218.13Zm19.48,28.45q14.36-35.53,28.58-71c-0.14-.58-0.29-1.15-0.43-1.66-1.51.36-3,.79-4.54,1.22q-13,32.62-26.06,65.23C672,2243.7,672.41,2244.13,674.5,2246.58Zm13,13q17.6-44.06,35.06-88c-2.45.14-4.9,0.36-7.42,0.58q-16,40.07-32,80.28c0.07,1.15.07,2.3,0.07,3.46Zm13,12q20.3-50.65,40.61-101.16c-2.3-.14-4.61-0.22-7-0.29q-19,47.63-38.09,95.26C696,2269,696.6,2270.55,700.49,2271.56Zm13,11q23-57.56,45.94-115.06c-2.09.14-4.18,0.36-6.34,0.58l-44.06,109.3C709.06,2280.56,710.35,2281.71,713.52,2282.58Zm12,9.94q25.06-63.07,50-126h-5q-24.19,61-48.53,122.11C723.17,2289.92,724.32,2291.22,725.47,2292.51Zm12,8.06q26.89-67.18,53.64-134.21c-1.51-.29-3.1-0.58-4.68-0.79q-26.24,66-52.56,132C734.9,2299.71,735.26,2300,737.5,2300.58Zm12,9q28.84-72.14,57.6-144.14c-1.66-.14-3.31-0.22-5-0.29q-28,70.09-56.09,140.26c0.07,0.79.07,1.66,0.07,2.52C747.29,2308.42,748.44,2309,749.52,2309.58Zm14,9q31-78.08,62-156c-5,.43-5,0.43-7.34,1.58q-30,75.17-60.19,150.48C759.82,2317.28,760.32,2317.64,763.49,2318.58Zm13,9.94c63.5-157.9,63.5-157.9,67-168-2.09.14-4.18,0.36-6.34,0.58q-32,79.6-64.08,159.26c-0.29,1.8-.58,3.67-0.94,5.54C773.64,2326.78,775.08,2327.65,776.52,2328.51Zm-46,315,35-89c-2,.65-4,1.3-6,2l-32.4,81.86c0.07,1.15.07,2.3,0.07,3.53C728.28,2642.43,729.43,2642.94,730.51,2643.51Zm12,12q21.82-54.11,43.63-108.14c-1.66-.43-1.66-0.43-7,1.73q-20.74,51.62-41.62,103.39C739.58,2653.09,739.58,2653.09,742.46,2655.54Zm12,9c49.61-123.12,49.61-123.12,49-123.55-1.44.36-2.88,0.72-4.32,1.15q-24.08,59.72-48.24,119.45C751.9,2663.67,752.26,2664,754.49,2664.54Zm12,9q27.32-68,54.58-135.94l-0.43-1.73-4.18.65q-26.78,67-53.57,134.06C763.42,2672,763.42,2672,766.51,2673.54Zm12,9,60-151c-1.66.29-3.31,0.65-5,1q-29.27,73.44-58.54,147C775.44,2681,775.44,2681,778.46,2682.54Zm14,10q32.94-82.73,65.74-165.31c-3.74-.22-3.74-0.22-7,1q-32.4,80.57-64.8,161.28Zm13,9q36.07-90.07,72-180c-2.3.29-4.61,0.65-7,1-63.43,158.83-63.43,158.83-70,177C802.15,2700.18,803.81,2700.82,805.46,2701.54Zm184,28c2.45-5,6.55-12.6,3.53-18C988.92,2728.62,988.92,2728.62,989.5,2729.55Zm-18,12c1.51-.94,3-1.8,4.39-2.66q5.08-21.17,10.15-42.26c0-4.9-.58-6.34-3.1-10.51a24.36,24.36,0,0,0-2.45-.58q-6.26,27.54-12.6,55.08C969.12,2740.93,970.34,2741.22,971.5,2741.58Zm-18,4c1.15-.65,2.23-1.22,3.31-1.8,16.27-68.11,16.27-68.11,16.13-70.63-1.15-1.08-2.3-2.16-3.53-3.24q-9.94,37.8-19.94,75.67h4Zm-17,2c0.79-.58,1.58-1.15,2.38-1.66Q949,2705.72,959,2665.62l0.43-6c-1.3-.94-2.66-1.8-4-2.66q-12,45.25-24,90.65h5Zm680.68-180.66,24.67,58.45c-3,5.55-3.24,5.66-4.31,6.17q-13.39-33.7-26.78-67.32l1.8-.22Q1614.9,2565.43,1617.18,2566.9Zm28.9,47.44L1630,2576.21C1641.53,2586,1648.8,2597.61,1646.08,2614.34Zm30.34-435.84,21,49.86a13.46,13.46,0,0,1-4.92,4.14q-10.91-27.11-21.67-54.14A12.35,12.35,0,0,1,1676.42,2178.49Zm25.59,39.59-14.75-34.94c6.2,3.68,12,8.62,14.71,12.2C1703.73,2200.84,1704,2210.07,1702,2218.08Zm-19.48,28.45q-14.36-35.53-28.58-71c0.14-.58.29-1.15,0.43-1.66,1.51,0.36,3,.79,4.54,1.22q13,32.62,26.06,65.23C1685,2243.65,1684.62,2244.08,1682.53,2246.53Zm-13,13q-17.6-44.06-35.06-88c2.45,0.14,4.9.36,7.42,0.58q16,40.07,32,80.28c-0.07,1.15-.07,2.3-0.07,3.46Zm-13,12q-20.3-50.65-40.61-101.16c2.3-.14,4.61-0.22,7-0.29q19,47.63,38.09,95.26C1661,2269,1660.43,2270.51,1656.54,2271.52Zm-13,11q-23-57.56-45.94-115.06c2.09,0.14,4.18.36,6.34,0.58l44.06,109.3C1648,2280.52,1646.68,2281.67,1643.51,2282.53Zm-12,9.94q-25.06-63.07-50-126h5q24.19,61,48.53,122.11C1633.86,2289.88,1632.71,2291.17,1631.56,2292.47Zm-12,8.06q-26.89-67.18-53.64-134.21c1.51-.29,3.1-0.58,4.68-0.79q26.24,66,52.56,132C1622.13,2299.67,1621.77,2300,1619.53,2300.53Zm-12,9q-28.84-72.14-57.6-144.14c1.66-.14,3.31-0.22,5-0.29q28,70.09,56.09,140.26c-0.07.79-.07,1.66-0.07,2.52C1609.74,2308.38,1608.59,2309,1607.51,2309.53Zm-14,9q-31-78.08-62-156c5,0.43,5,.43,7.34,1.58q30,75.17,60.19,150.48C1597.21,2317.24,1596.71,2317.6,1593.54,2318.53Zm-13,9.94c-63.5-157.9-63.5-157.9-67-168,2.09,0.14,4.18.36,6.34,0.58q32,79.6,64.08,159.26c0.29,1.8.58,3.67,0.94,5.54C1583.39,2326.74,1581.95,2327.6,1580.51,2328.47Zm46,315-35-89c2,0.65,4,1.3,6,2l32.4,81.86c-0.07,1.15-.07,2.3-0.07,3.53C1628.75,2642.39,1627.6,2642.89,1626.52,2643.47Zm-12,12q-21.82-54.11-43.63-108.14c1.66-.43,1.66-0.43,7,1.73q20.74,51.62,41.62,103.39C1617.45,2653,1617.45,2653,1614.57,2655.49Zm-12,9c-49.61-123.12-49.61-123.12-49-123.55,1.44,0.36,2.88.72,4.32,1.15q24.08,59.72,48.24,119.45C1605.13,2663.63,1604.77,2663.92,1602.54,2664.49Zm-12,9q-27.32-68-54.58-135.94l0.43-1.73,4.18,0.65q26.78,67,53.57,134.06C1593.61,2671.91,1593.61,2671.91,1590.52,2673.49Zm-12,9-60-151c1.66,0.29,3.31.65,5,1q29.27,73.44,58.54,147C1581.59,2680.91,1581.59,2680.91,1578.57,2682.49Zm-14,10q-32.94-82.73-65.74-165.31c3.74-.22,3.74-0.22,7,1q32.4,80.57,64.8,161.28Zm-13,9q-36.07-90.07-72-180c2.3,0.29,4.61.65,7,1,63.43,158.83,63.43,158.83,70,177C1554.88,2700.13,1553.22,2700.78,1551.57,2701.5Zm-184,28c-2.45-5-6.55-12.6-3.53-18C1368.11,2728.57,1368.11,2728.57,1367.53,2729.51Zm18,12c-1.51-.94-3-1.8-4.39-2.66q-5.08-21.17-10.15-42.26c0-4.9.58-6.34,3.1-10.51a24.37,24.37,0,0,1,2.45-.58q6.26,27.54,12.6,55.08C1387.91,2740.88,1386.69,2741.17,1385.53,2741.53Zm18,4c-1.15-.65-2.23-1.22-3.31-1.8-16.27-68.11-16.27-68.11-16.13-70.63,1.15-1.08,2.3-2.16,3.53-3.24q9.94,37.8,19.94,75.67h-4ZM788.75,2337.42l74.79-181.21-7.38,2.23q-35,86.51-70.13,173.16c-0.07,1.22-.14,2.45-0.29,3.67Zm10.94,7.79,81.42-197.44c-1.62,1-3.36,2-5.27,3L796.53,2343Zm655.74,163.39,80.41,203.8,6.09-4c0-.94,0-1.87.07-2.81q-38.12-95.15-76.1-190.15A65,65,0,0,1,1455.42,2508.61Zm-552.82-.76-80.86,205-6.62-4.34c0-.94,0-1.87-0.07-2.81q38.12-95.15,76.1-190.15A63.8,63.8,0,0,0,902.6,2507.84Zm553.23-381.7h0c-17.6-62.24,67.12-96.91,105.31-141h2.74c110.66,133.06,222.77,265.32,331.13,400.25,17.42,34.85,15.12,57.74,1,93.24-44.78,79.92-135.94,128.45-213,170.5,64,130.25,64,130.25,101.16,203.26-16,52.34-38.09,100.15-79.2,137.52-22,16.2-40.18,26.28-65.3,37.08-86.9,24.48-168.19,3.6-248.47-33.12-17.06-9.94-17.06-9.94-18.72-11.88-63.28-11.74-128.62-14.48-193.9-13.85V2653.39h0v314.75c-65.28-.63-130.61,2.1-193.9,13.85-1.66,1.94-1.66,1.94-18.72,11.88-80.28,36.72-161.57,57.6-248.47,33.12-25.13-10.8-43.27-20.88-65.3-37.08-41.11-37.37-63.22-85.18-79.2-137.52,37.15-73,37.15-73,101.16-203.26-77.11-42-168.26-90.58-213-170.5-14.11-35.5-16.42-58.39,1-93.24,108.36-134.93,220.46-267.19,331.13-400.25h2.74c38.28,44.23,123.31,79,105.19,141.48l-93.57,224.16q13.83,9.85,27.62,19.71c24.94,21.55,92.43,79,79.58,119.86h0l0,0.07a33.6,33.6,0,0,1-1.22,3.22l-84.92,223.66,7.09,4.7c24.26,12.89,55.8,31,84.67,25.27,26-97.63,26.64-97.27,27.22-98.71l229.93,4.81,1.08,0v0l-1.07,0,232.05-4.86c0.58,1.44,1.22,1.08,27.22,98.71,28.87,5.76,60.41-12.38,84.67-25.27l7.6-5-85-222.34a33.45,33.45,0,0,1-1.82-4.77l-0.08-.22,0,0c-11.88-40.79,55-97.73,79.77-119.17q11.92-8.52,23.89-17l-89.72-226.63-0.12-.18c0-.12-0.06-0.24-0.1-0.37Zm103,218-76-192.52a82.19,82.19,0,0,1-10.24-6.15l80.1,203Zm-65.36-188,72.24,183.1,5.64-4c-0.14-1.22-.22-2.45-0.29-3.67q-35.1-86.62-70.13-173.16Zm-72.89,591.36c-0.79-.58-1.58-1.15-2.38-1.66q-10.15-40.18-20.16-80.28l-0.43-6c1.3-.94,2.66-1.8,4-2.66q12,45.25,24,90.65h-5Z" style="fill:#695221;fill-rule:evenodd"/><path d="M100.38,1544.59l329.52-80q-6.75-35.73-10.08-72.59L85.88,1453.26c3.55,30.36,8.7,60.82,14.51,91.33m51.79,190.19c88-30.11,218.38-85.94,320.63-124.72q-13.94-34.15-24.59-69.89c-104.11,32.22-235.53,81.56-324.54,104.27C131.89,1675.39,140.85,1704.88,152.18,1734.78Zm76.53,170.08c85.31-46,212.09-117.39,308.87-170.36q-19.85-30.79-36.76-63.56c-100.08,46.42-227.24,110-314.65,148.36A921.13,921.13,0,0,0,228.71,1904.86Zm100.87,155.21c79.1-59.55,206.52-146.67,296.33-213.24q-25.27-26.59-47.93-55.55c-215.26,136.3-271.13,169.58-303.21,190.65Zm129.79,150.38,274.16-269.74q-29.45-21.2-56.74-45.07L394.32,2139.7Z" style="fill:#e66e15;fill-rule:evenodd"/><path d="M379.69,1181.88c11.88-5.91,16.76-7.35,26,0h-26Zm-15.44,10.07a46.44,46.44,0,0,1,4.72-4.12h43.35l1.46,1.43,2.05,2.69H364.26Zm-6.88,9.8a30.51,30.51,0,0,1,2.09-3.86h60.95c1,1.27,2,2.56,3.08,3.86H357.38Zm-2.49,9.54a30.93,30.93,0,0,1,.55-3.59h73.12c1.08,1.22,2.19,2.42,3.33,3.59h-77Zm0.28,8.74q-0.2-1.41-.31-2.8h83.27c1.13,1,2.28,1.92,3.45,2.8H355.16ZM1905.22,1226h95.4c-4.72,17.55-18.35,36.09-26.56,52.51q-16.2,37.58-32.33,75.24c0.22,0.36.5,0.79,0.79,1.22q158,5.72,316,11.52h21q36.72-70.52,73.51-141c1.3-4.39,2.59-8.71,4-13,0-22.46-3.24-30-24.48-39.46-22-8-22-8-71-23.54q-2.81-21.49-5.54-43c-8.42-42.12-19.3-81.86-32-123-35.28-94.82-79.78-179.71-136-264q-24.08-32.08-48-64c-33-39-33-39-64.94-75-32-33.12-65.74-64.3-99.5-95.54-38-32-80.28-65.3-84.53-69.48-106.58-60.65-176.8-140.84-220.7-239.33-140.61-6-250.38-2.87-391.81-3.74V697.88c18.3,1.46,35.22-5.15,54-21.89,18,1,18,1,81,1q113-2.59,226-5c66,34.2,121.32,77.54,175.46,128.52a919.82,919.82,0,0,1,121,154c24.34,45.5,45.65,88.92,64,137,0,22.68-7.92,44.64-15,66-12.67,22.25-20.52,40.46-6.84,64.22C1887.53,1229.11,1896.67,1229.45,1905.22,1226Zm72.21-44.1h-26.15C1960.58,1174.46,1965.46,1175.92,1977.43,1181.88Zm15.39,10.07h-51.66l2.09-2.73,1.42-1.39h43.45A46.24,46.24,0,0,1,1992.82,1191.95Zm6.85,9.8H1933.5c1.06-1.3,2.09-2.59,3.08-3.86h61A30.49,30.49,0,0,1,1999.67,1201.75Zm2.48,9.54h-77c1.13-1.18,2.25-2.38,3.33-3.59h73.17A30.89,30.89,0,0,1,2002.15,1211.29Zm-83.3,5.95h83.32q-0.11,1.39-.31,2.8H1915.4C1916.57,1219.15,1917.72,1218.21,1918.86,1217.24ZM98.5,1366.52q158-5.83,316-11.52c0.29-.43.58-0.86,0.79-1.22q-16.09-37.69-32.33-75.24c-8.22-16.43-21.86-35-26.57-52.56h95.3c8.58,3.52,17.76,3.21,27.1-4.25,13.68-23.76,5.83-42-6.84-64.22-7.06-21.31-15-43.27-15-66,18.36-48.1,39.67-91.51,64-137a919.83,919.83,0,0,1,121-154c54.14-51,109.44-94.32,175.46-128.52q113.08,2.48,226,5c63,0,63,0,81-1,18.78,16.74,35.7,23.35,54,21.89V172.47c-140.55.87-254.13-2.24-393.76,3.74C734.27,266,671.63,350.3,566,415.54c-4.25,4.18-46.51,37.51-84.53,69.48C447.7,516.27,414,547.45,382,580.57c-32,36-32,36-64.94,75q-24,32-48,64c-56.23,84.31-100.73,169.2-136,264-12.67,41.11-23.54,80.86-32,123q-2.7,21.49-5.54,43c-49,15.55-49,15.55-71,23.54C3.24,1182.56,0,1190,0,1212.51c1.37,4.32,2.66,8.64,4,13q36.83,70.42,73.51,141h21Z" style="fill:#695221;fill-rule:evenodd"/><path d="M1178.17,583l-9.5-11.82-9.79-10.61-10.11-9.51-10.41-8.47-10.71-7.5-11-6.6-11.27-5.75-11.55-5L1082,513.52l-12.07-3.6-12.32-3-12.56-2.47-12.8-2-13-1.57L1006,499.68l-13.41-.91L979,498.11l-13.76-.49-13.92-.37-14.06-.31-14.19-.32-14.31-.39-14.41-.52-14.5-.7-14.58-1-14.65-1.27L836,491.11,821.23,489l-14.77-2.6-14.78-3.16-14.78-3.79-17.3-5.25L850.12,4.63l13.94,4.19L874,11.69,854.2,23.13l9.93,2.66,9.94,2.54L884,30.76l10,2.32,10,2.21,10,2.1,10,2,10,1.87,10,1.76,10,1.65,10,1.53L974,47.61l10.06,1.3,10.08,1.18,10.1,1.06,10.11,0.95,10.13,0.83,10.15,0.71,10.17,0.59L1055,54.68,1065.23,55l10.23,0.22,10.25,0.1,10.27,0,10.3-.14,10.32-.27,10.34-.39,10.37-.52,13.66-.85,0.62,4.47,0.44,1.25,0.68,1.19,0.94,1.15,1.21,1.1,1.47,1.05,1.72,1,2,0.91,2.17,0.82,2.35,0.72,2.51,0.62,2.64,0.51,2.75,0.4,2.82,0.29,2.88,0.17,2.9,0.06h0.21c8.48,4.33,15.52,7.62,17.37,7.62,5.4,0,46.15-6.43,52.11-21.41l5.06,0.13,10.3,0.15,10.27,0,10.25-.1,10.23-.22,10.21-.35,10.19-.47,10.17-.59,10.15-.71,10.13-.83,10.11-.94,10.1-1.07L1378,48.91l10.07-1.3,10.05-1.41,10-1.53,10-1.65,10-1.76,10-1.87,10-2,10-2.1,10-2.21,10-2.32,9.95-2.43,9.94-2.55-26.77-7.9,9.92-2.76,9.92-2.87,13.94-4.19,97.52,466.16-17.3,5.25-14.78,3.79-14.78,3.16-14.77,2.6-14.74,2.09-14.7,1.65L1496.73,494l-14.58,1-14.5.7-14.41.52-14.31.39-14.19.32-14.06.31-13.92.37-13.76.49-13.59.67-13.41.91-13.22,1.21-13,1.57-12.79,2-12.56,2.47-12.32,3-12.07,3.6-11.81,4.26-11.55,5-11.27,5.75-11,6.6-10.71,7.5-10.41,8.47-10.11,9.51-9.79,10.61-9.55,11.89-3,3.47Z" style="fill:#2f2482;fill-rule:evenodd"/><path d="M802,164.74l-14.38-2.55L710,503.78s65.2,18.23,76.49,21.06S841.8,535,850.27,535s106.67,3.39,118.52,3.39,79.58,6.21,89.17,10.72,50.79,18.06,62.65,35,22,25.4,22,25.4,19.75-13.55,36.12-13.55,20.32,2.26,28.78,7.9,11.85,8.47,11.85,8.47,13.55-21.45,33.3-35.56,22.23-16.82,35.8-21.15,43.91-14.44,93.59-15.89,84.34-3.18,91-3.18,62.1-3.47,71.35-5.49,56.33-10.69,65.86-15,42.17-14.44,42.17-14.44L1566.5,171.06l-34.24-7.14Z" style="fill:#fff;fill-rule:evenodd"/><path d="M1539,52.65l115.54,450.62L1599.62,520l-16.93,4.34-16.79,3.59-16.61,2.92-16.4,2.33L1516.74,535l-15.89,1.38-15.61,1-15.31.75-15,.54-14.66.39-14.31.32-13.95.31-13.56.36-13.15.47-12.73.63-12.28.83L1348.48,543l-11.33,1.36-10.83,1.68-10.34,2-9.85,2.4-9.39,2.8-9,3.23-8.6,3.71-8.31,4.24-8.08,4.85-7.93,5.56-7.83,6.37-7.76,7.31-7.72,8.36-9,11.22-3.36,3.93q-1.12-1.18-2.34-2.29l2.93-3.44,9.06-11.27,7.87-8.52,7.93-7.46,8-6.52,8.13-5.69,8.29-5,8.52-4.35,8.82-3.8,9.17-3.31,9.58-2.86,10-2.45,10.5-2.06,11-1.7,11.45-1.38,11.91-1.09,12.36-.84,12.79-.63,13.2-.47,13.58-.36,14-.31,14.3-.32,14.64-.39,15-.53,15.25-.74,15.53-1,15.8-1.37,16.05-1.8,16.28-2.31,16.48-2.9,16.65-3.56,16.78-4.3,52.26-15.86-116-454ZM1141.81,611.2l-3.07-4-8.22-10.22-7.72-8.36-7.77-7.31-7.83-6.37-7.93-5.55-8.08-4.85-8.31-4.24-8.61-3.71-9-3.23-9.39-2.8-9.85-2.4-10.34-2-10.83-1.68L1013.57,543,1001.76,542l-12.28-.83-12.73-.63L963.59,540,950,539.67l-13.95-.31L921.78,539l-14.66-.39-15-.54-15.31-.75-15.61-1-15.89-1.38-16.15-1.82-16.39-2.33-16.61-2.92-16.79-3.59L762.43,520l-54.95-16.68L812.31,49.44l4.09-4.85L711.21,501.2l52.26,15.86,16.78,4.3,16.65,3.56,16.48,2.9,16.28,2.31,16.05,1.8,15.8,1.37,15.53,1,15.25,0.74,15,0.53L921.87,536l14.3,0.32,14,0.31L963.71,537l13.2,0.47,12.79,0.63,12.36,0.84L1014,540l11.45,1.38,11,1.71,10.5,2.06,10,2.44,9.58,2.86,9.17,3.31,8.82,3.8,8.52,4.35,8.29,5,8.13,5.69,8,6.52,7.93,7.46,7.87,8.52,8.31,10.34,2.67,3.51Q1143,610,1141.81,611.2ZM1530.69,41.75l116.43,457.37-49.57,15-16.63,4.26-16.5,3.53-16.35,2.87-16.16,2.29L1516,528.93l-15.71,1.37-15.46,1-15.19.74-14.91.53-14.61.39-14.29.32-14,.31-13.61.36-13.24.47-12.85.63-12.44.84-12,1.1-11.57,1.39L1325,540.14l-10.66,2.09-10.2,2.49-9.78,2.91L1285,551l-9,3.89-8.73,4.46-8.5,5.1-8.32,5.83-8.2,6.67-8.1,7.62-8,8.68-9.1,11.32-2.66,3.11q-1.27-1-2.63-2l2.52-3,9.14-11.37,8.16-8.84,8.27-7.78,8.38-6.82,8.52-6,8.71-5.22,8.94-4.56,9.23-4,9.58-3.45,10-3,10.38-2.53,10.82-2.12,11.25-1.75,11.69-1.41,12.11-1.11,12.52-.85,12.92-.64,13.28-.47,13.64-.36,14-.31,14.28-.32,14.59-.39,14.87-.53,15.14-.74,15.39-1,15.62-1.36,15.84-1.78,16-2.28,16.21-2.85,16.36-3.5,16.47-4.23,46.88-14.23L1526.53,36.3Zm-383.9,565.14-2.42-3.18-8.4-10.45-8-8.68-8.1-7.62-8.2-6.67-8.32-5.83-8.5-5.1-8.73-4.46-9-3.89-9.38-3.38-9.77-2.92-10.2-2.49-10.66-2.09L1026,538.41,1014.39,537l-12-1.1-12.44-.84-12.85-.63L963.84,534l-13.61-.37-14-.31L922,533l-14.61-.39L892.45,532l-15.2-.74-15.46-1-15.71-1.37-15.95-1.79L814,524.84,797.63,522l-16.5-3.53-16.63-4.26-49.57-15L820.48,39.75l4.09-4.84L718.65,497l46.88,14.23L782,515.5l16.36,3.5,16.21,2.85,16,2.28,15.84,1.78,15.62,1.36,15.39,1L892.61,529l14.87,0.53,14.59,0.39,14.28,0.32,14,0.31L964,530.94l13.29,0.47,12.91,0.64,12.52,0.85,12.11,1.11,11.69,1.41,11.25,1.75,10.82,2.12,10.38,2.53,10,3,9.58,3.45,9.24,4,8.94,4.56,8.71,5.22,8.52,6,8.38,6.82,8.27,7.78,8.16,8.84,8.49,10.57,2.29,3Q1148.1,605.91,1146.79,606.89Zm375.57-576L1639.68,495l-44.19,13.42-16.32,4.19L1563,516l-16.08,2.83-15.92,2.26-15.74,1.77-15.54,1.35-15.31,1-15.08.74-14.83.53-14.56.39-14.28.32-14,.31-13.66.37-13.33.47-13,.64-12.6.85L1346.85,531,1335,532.42l-11.4,1.77-11,2.15-10.56,2.57-10.16,3-9.78,3.53-9.45,4.07-9.15,4.67-8.92,5.35-8.72,6.11-8.56,7-8.43,7.93-8.31,9L1211.45,601l-2.53,3q-1.42-.85-2.91-1.62l2.67-3.13,9.21-11.46,8.46-9.16,8.6-8.09,8.75-7.12,8.92-6.25,9.12-5.47,9.37-4.78,9.66-4.16,10-3.6,10.35-3.09,10.73-2.62,11.13-2.19,11.54-1.79,11.93-1.44,12.31-1.12,12.68-.86,13-.64,13.37-.48,13.69-.37,14-.31,14.27-.32,14.53-.39,14.79-.53,15-.73,15.24-1,15.45-1.34,15.64-1.76,15.8-2.24,16-2.8,16.07-3.44,16.16-4.15,41.5-12.6L1518.19,25.4ZM1152.31,603.29l-2.3-3-8.58-10.68-8.31-9-8.43-7.93-8.57-7-8.72-6.11-8.92-5.35-9.16-4.67-9.45-4.07-9.78-3.53-10.16-3-10.56-2.57-11-2.15L1027,532.42,1015.2,531,1003,529.88l-12.6-.85-13-.64-13.33-.47-13.66-.37-14-.31-14.28-.32-14.56-.39L892.77,526l-15.08-.73-15.31-1-15.54-1.35-15.74-1.77-15.92-2.26L799.1,516l-16.22-3.47-16.32-4.19L722.37,495,828.66,30.06l4.09-4.85L726.1,492.9l41.5,12.6,16.16,4.15,16.07,3.44,16,2.8,15.8,2.24,15.64,1.76,15.45,1.34,15.24,1,15,0.73,14.78,0.53,14.53,0.39,14.27,0.32,14,0.31,13.69,0.36,13.37,0.48,13,0.64,12.68,0.86L1015.6,528l11.93,1.44,11.53,1.79,11.13,2.19,10.74,2.62,10.35,3.08,10,3.6,9.66,4.16,9.37,4.78,9.12,5.47,8.92,6.25,8.75,7.12,8.6,8.09,8.46,9.17,8.68,10.79,2.43,3.2Q1153.75,602.47,1152.31,603.29ZM1514,19.95l118.21,470.88-38.81,11.78-16,4.11-15.93,3.41-15.82,2.78L1530,515.13l-15.53,1.75-15.36,1.34-15.17,1-15,.73-14.74.53-14.51.39-14.26.32-14,.31-13.71.37-13.42.48-13.1.64-12.76.86L1346,525l-12,1.45-11.67,1.81L1311,530.46l-10.91,2.66-10.54,3.15-10.19,3.67-9.87,4.25-9.58,4.89-9.33,5.6-9.12,6.39-8.93,7.27-8.77,8.25-8.61,9.32-9.25,11.51-3,3.47q-1.57-.69-3.2-1.28l3.39-4,9.29-11.55,8.76-9.48,8.94-8.41,9.12-7.42,9.32-6.53,9.54-5.72,9.79-5,10.08-4.34,10.39-3.75,10.73-3.2,11.09-2.7,11.45-2.25,11.81-1.83,12.17-1.47,12.52-1.14L1371,520l13.16-.65,13.46-.48,13.74-.37,14-.31,14.25-.32,14.48-.39,14.7-.53,14.91-.73,15.09-1,15.27-1.33,15.43-1.73,15.57-2.21,15.69-2.76,15.79-3.38,15.86-4.07,36.12-11L1509.85,14.5ZM1158.34,600.36l-2.7-3.55-8.77-10.91-8.61-9.32-8.77-8.25-8.93-7.27-9.12-6.39-9.33-5.6-9.58-4.89-9.86-4.25-10.19-3.67-10.54-3.15L1051,530.46l-11.29-2.22-11.67-1.81L1016,525l-12.42-1.13L990.83,523l-13.1-.64-13.41-.48-13.71-.37-14-.31-14.26-.32-14.51-.39-14.74-.53-15-.73-15.17-1-15.36-1.34-15.53-1.75-15.69-2.23-15.82-2.78-15.93-3.41-16-4.11-38.81-11.78,107-470.45,4.09-4.85L733.54,488.74l36.12,11,15.86,4.07,15.79,3.38L817,509.91l15.57,2.21L848,513.86l15.27,1.33,15.09,1,14.91,0.73,14.7,0.53,14.48,0.39,14.25,0.32,14,0.31,13.74,0.37,13.46,0.48L991.06,520l12.85,0.87,12.52,1.14,12.17,1.47,11.82,1.84,11.45,2.25,11.09,2.7,10.73,3.2,10.39,3.75,10.08,4.34,9.79,5,9.54,5.72,9.32,6.53,9.12,7.42,8.93,8.41,8.76,9.48,8.86,11,3.1,4.07Q1159.92,599.71,1158.34,600.36ZM737.26,486.67L845,10.68l5.11-6.05,0.42,1.76L849.08,6,741,484.59l30.74,9.33,15.55,4,15.5,3.32,15.43,2.71,15.33,2.18,15.22,1.71,15.09,1.31,14.95,1,14.79,0.72,14.62,0.52,14.43,0.39,14.23,0.32,14,0.31,13.79,0.37,13.54,0.48,13.28,0.65,13,0.88,12.72,1.16,12.41,1.49,12.1,1.88,11.77,2.31,11.44,2.79,11.11,3.32,10.8,3.89,10.5,4.52,10.21,5.21,10,6,9.71,6.81,9.49,7.72,9.27,8.72,9.05,9.81,9,11.25,4.32,5.68q-1.78.36-3.5,0.83l-3.63-4.78-9-11.14-8.9-9.64-9.1-8.56-9.3-7.57-9.52-6.67-9.75-5.85-10-5.11-10.29-4.43-10.6-3.82-10.92-3.26-11.26-2.75-11.61-2.28-12-1.86L1016.83,519l-12.62-1.15-12.93-.87-13.22-.65-13.5-.48-13.76-.37-14-.31-14.24-.32-14.46-.39-14.66-.52-14.85-.72-15-1-15.18-1.32-15.33-1.72-15.45-2.19L802,504.19l-15.64-3.35-15.7-4Zm455.65,110.91,4.73-5.54,9.37-11.65,9.05-9.81,9.27-8.72,9.49-7.72,9.71-6.8,10-6,10.21-5.21,10.5-4.52,10.8-3.89,11.11-3.32,11.44-2.79,11.77-2.31,12.1-1.88,12.41-1.5,12.72-1.16,13-.88,13.29-.65,13.54-.48,13.79-.37,14-.31,14.23-.32,14.43-.39,14.62-.52,14.79-.72,14.95-1,15.09-1.31,15.22-1.71,15.33-2.18,15.43-2.71,15.5-3.32,15.55-4,30.74-9.33L1502.38,10.16l2.55-2.1,0.76,1,119.1,477.63-33.43,10.15-15.71,4L1560,504.2l-15.56,2.74L1529,509.13l-15.33,1.72-15.18,1.32-15,1-14.85.72-14.66.52-14.46.39-14.24.32-14,.31-13.76.37-13.5.48-13.22.65-12.93.87L1345.23,519l-12.29,1.48-12,1.86-11.61,2.28-11.26,2.75-10.93,3.26-10.59,3.82-10.29,4.43-10,5.11-9.75,5.85-9.52,6.67-9.3,7.57-9.1,8.56-8.9,9.64-9.33,11.6-4,4.66Q1194.69,598,1192.91,597.58ZM964.8,509.73L951,509.36l-14-.31-14.22-.32-14.41-.39-14.58-.52L879,507.1l-14.87-1-15-1.3L834,503.12,818.81,501l-15.29-2.69L788.16,495l-15.4-4-28.06-8.52L851.78,11.65,854,21,748.43,480.45l25.37,7.7L789,492.06l15.21,3.26L819.42,498l15.1,2.14,15,1.69,14.91,1.3,14.8,1,14.67,0.71,14.53,0.52,14.38,0.39L937,506l14,0.31,13.84,0.37,13.63,0.48L992,507.85l13.17,0.89,12.92,1.18,12.65,1.52,12.37,1.92,12.09,2.37,11.79,2.88,11.5,3.43,11.2,4,10.92,4.7,10.64,5.43,10.37,6.22,10.11,7.08,9.86,8,9.6,9,9.35,10.13,9.23,11.48,6.17,8.11q-1.94.14-3.83,0.4l-5.16-6.78-9.14-11.36-9.2-10-9.44-8.88-9.67-7.87-9.91-6.95-10.16-6.1L1099,533.47l-10.71-4.61-11-4L1066,521.52l-11.62-2.83-11.93-2.34-12.23-1.9-12.53-1.51-12.82-1.17-13.09-.89-13.35-.66Zm220.54,86.65,6.77-7.94,9.44-11.74,9.35-10.13,9.61-9,9.86-8,10.11-7.08,10.37-6.22,10.64-5.43,10.92-4.7,11.2-4,11.5-3.43,11.79-2.87,12.09-2.37,12.37-1.92,12.65-1.52,12.92-1.18,13.17-.89,13.41-.66,13.63-.48,13.84-.37,14-.31,14.22-.32,14.38-.39,14.53-.52,14.67-.72,14.8-1,14.91-1.3,15-1.69,15.1-2.14,15.16-2.67,15.21-3.26,15.24-3.91,25.37-7.7L1496.16,15.28l3.11-2.56,118.07,469.81L1589.29,491l-15.4,3.95-15.36,3.28-15.3,2.69L1528,503.12l-15.12,1.7-15,1.3-14.87,1-14.73.72-14.58.52-14.41.39-14.22.32-14,.31-13.81.37-13.59.48-13.35.66-13.09.89-12.82,1.17-12.53,1.51-12.23,1.9-11.93,2.34-11.62,2.83-11.31,3.37-11,4-10.71,4.61-10.43,5.32-10.16,6.1-9.91,6.94-9.67,7.87-9.44,8.88-9.2,10-9.4,11.7-5.65,6.63Q1187.31,596.57,1185.34,596.39Zm-12.8-9.93-9.32-11.59-9.49-10.29-9.77-9.19-10-8.17L1123.61,540,1113,533.65l-10.85-5.54-11.13-4.8-11.41-4.11L1068,515.72l-12-2.92-12.25-2.4-12.51-1.95-12.77-1.54-13-1.19-13.25-.9-13.47-.66L965,503.67l-13.86-.37-14-.31-14.21-.32-14.36-.39-14.49-.52-14.62-.71-14.73-1-14.83-1.29L835,497.12,820,495l-15-2.64-15.07-3.22-15.09-3.87-22.68-6.88L856.92,25l3.14,2.34-104.18,449,20,6.07,14.94,3.83,14.93,3.19,14.9,2.62,14.86,2.11,14.8,1.66L865,497.06l14.65,1,14.56,0.71,14.45,0.52L923,499.64l14.2,0.32,14.05,0.31,13.89,0.37,13.72,0.49,13.53,0.67,13.33,0.9,13.12,1.2,12.89,1.55,12.66,2,12.41,2.44,12.15,3,11.88,3.54,11.61,4.19,11.34,4.88,11.06,5.65,10.79,6.47,10.51,7.36,10.23,8.32,9.94,9.35,9.64,10.45,9.41,11.71,5.35,7,5.88-6.9,9.52-11.84,9.64-10.45,9.94-9.35,10.22-8.32,10.51-7.36,10.79-6.47,11.06-5.65,11.34-4.88,11.61-4.18,11.88-3.54,12.15-3,12.4-2.43,12.65-2,12.89-1.55,13.12-1.2,13.33-.9,13.53-.67,13.72-.49,13.89-.37,14-.31,14.2-.32,14.33-.39,14.45-.52,14.56-.71,14.65-1,14.74-1.28,14.8-1.66,14.86-2.11,14.9-2.62,14.93-3.19,14.94-3.83,20-6.07-116-454.25-3.53,1.06,6.15-5.05,0.29-.09,116.83,460.4-22.68,6.88-15.09,3.87-15.07,3.22L1542,495l-15,2.13-14.91,1.68-14.82,1.29-14.73,1-14.62.71-14.49.52-14.36.39-14.21.32-14,.31-13.86.37-13.67.49-13.47.66-13.25.9-13,1.19-12.77,1.54-12.51,1.94-12.25,2.4-12,2.92-11.69,3.49L1271,523.31l-11.13,4.8L1249,533.65,1238.45,540l-10.31,7.22-10,8.17-9.77,9.19-9.49,10.29-9.48,11.79-8.11,9.5h-1.32Z" style="fill:#ee7c00;fill-rule:evenodd"/><path d="M308.83,882.67c-2.22-3.09-4.44-6.18-6.47-9.3,27.15-103.5,27.15-103.5,28.19-105.47a34.4,34.4,0,0,1,5.17,7.54c-25.41,103.2-25.41,103.2-26.9,107.23M273,1008.88a145.31,145.31,0,0,0,31.81,18.29q23.31,9,29.28-1.75,6.35-7.28-4.18-23.32t-14.26-32c-2.47-10.65-2.28-19,.68-25.14,3.65-4.61,7.72-6.65,12.15-6.13a101.35,101.35,0,0,0,14.62,3.38,60,60,0,0,0,14,1c29.6-2.41,34.34-36.31,42.77-58.67a32,32,0,0,0-12.39,1.34,21.52,21.52,0,0,0-9.39,6.65c-2.81,3.24-4.51,6.09-5.2,8.53s-1.44,3.49-2.39,3.18-6.14-8.1-15.6-23.28a68.75,68.75,0,0,1,3.4-18.77q3.13-9.82,11.74-19.68a42.45,42.45,0,0,1,22.19-13.3q13.67-3.5,19.6,6.34a57.45,57.45,0,0,1,9.44,14.24c19.3-13.4,31.19-25.29,26.12-53.37a79.54,79.54,0,0,0-7.81-15.67,99,99,0,0,1-7.8-14.53,45.21,45.21,0,0,1-3.4-11.33,33.67,33.67,0,0,1,.47-10.25,18.08,18.08,0,0,1,4.52-9.27,12.12,12.12,0,0,1,8.88-3.88,44.77,44.77,0,0,1,10.41.9,114.25,114.25,0,0,1,12.5,3.48c5,1.65,13.32,5.23,25.11,10.82l9.41,18.6C487.85,777,475.1,785,461.51,789.42c16.66,33.5-3.42,62.45-27.28,86.48-2.77,2.8-13.74-1.66-19.8-1.29,2.22,5.69,8.75,16.16,7.73,20.82-4.55,20.69-12.54,60.71-39.33,67.21-4.53,1.1-22.14,1.91-30.24.4-6.39-1.19-11.91-.85-16.45.73s-4.42,8.41.45,20.59l17.62,31.76q4.71,14.73.17,22.1-11.94,21.5-56-4.71L287.06,1025C278.21,1018.55,273.56,1013.21,273,1008.88ZM446.56,760.16a14.77,14.77,0,0,0,.63,8.55,70.4,70.4,0,0,0,22.2-10.86c-6.91-3.17-12.81-4.38-17.79-3.49A8.72,8.72,0,0,0,446.56,760.16Zm-195.84,149,8.72,23.58c-6,5.17-14.64,9.74-25.84,13.7l5.58,18a90,90,0,0,1-25.85,13.37l-8.08-25.67a138.76,138.76,0,0,0,25.33-11l-5.14-19.91Q240.89,916.1,250.72,909.18ZM618.08,657.36c1.27,7.65,2.2,14.61,2.77,20.77s-4.21,15.5-14.42,27.85l-21.58,27.68L581.48,738c-12.87,13.89-27.48,16.63-44.41,9.6-11.07-4.59-75.46-46-130.75-83L392,633.26c65.47,44.21,132.77,89.2,140.1,92.23s14,3.25,19.88.62a35.76,35.76,0,0,0,11.61-9l6-7.73h0l18.76-24.06q17.44-22.81,14.44-38.28c-11.65,8.13-21.21,15.9-28.67,23.45s-12.35,15.4-14.68,23.62Q547,678.56,546.29,667.27a25.91,25.91,0,0,1,7.36-20,50.16,50.16,0,0,1,5.89-5.38q0.56-5.84-2-7.84l-80.1-45.57c-5.78-3.55-9.9-5-12.37-4.41a21.53,21.53,0,0,1-7.06.69,8.83,8.83,0,0,1-5.79-2.86,34.23,34.23,0,0,1-5.09-7.92c-1.75-3.5-4.5-10.4-8.17-20.68,5,3.91,8.91,5.77,11.77,5.59s6-.47,9.34-0.95,10.66-2.85,21.81-7.29l14.67,26.12,53.72,32.48c5.38,4.19,11.78,10.52,19.24,18.89a30.38,30.38,0,0,1,3.77,5.87l0.83-.34c8.24-3.32,17.9-9,28.85-16.95,5.67-4.13,14.62-13.79,23.13-24.06l-77-43.82c-5.89-3.35-9.9-5-12.37-4.41a21.52,21.52,0,0,1-7.06.69,8.83,8.83,0,0,1-5.79-2.85,34.25,34.25,0,0,1-5.09-7.92c-1.75-3.5-4.5-10.4-8.17-20.68,5,3.91,8.91,5.77,11.77,5.59s6-.47,9.34-0.95,10.66-2.85,21.81-7.29l14.67,26.12c25.86,15.64,46.35,28.08,67.61,43.3,4-5.33,7.53-10.29,9.91-14.13,2.57,4.63,5.61,12.48,9.18,23.55-0.57.75-1.36,1.8-2.31,3.08,4.66,3.6,9.42,7.4,14.34,11.45l10,18.35-32.17-19.11c-7,9.68-15.5,21.53-19.26,27.52C619.28,641,616.8,649.72,618.08,657.36Zm43.53,20.86q-11.25,8-26.77,6.5l-1.48-25.95A100.15,100.15,0,0,0,659.54,653Z" style="fill:#fff;fill-rule:evenodd"/><path d="M324.15,1222.57H206.7c-4,0-7.25,2.7-7.25,6s3.26,6,7.25,6H324.15c4,0,7.25-2.7,7.25-6s-3.26-6-7.25-6m-164.5-24H42.2c-4,0-7.25,2.7-7.25,6s3.26,6,7.25,6H159.65c4,0,7.25-2.7,7.25-6S163.63,1198.58,159.65,1198.58Zm15.82,25.7H36.67c-4.71,0-8.57,2.7-8.57,6s3.86,6,8.57,6h138.8c4.71,0,8.57-2.7,8.57-6S180.18,1224.29,175.46,1224.29Zm159.36-25.7H196c-4.71,0-8.57,2.7-8.57,6s3.86,6,8.57,6h138.8c4.71,0,8.57-2.7,8.57-6S339.54,1198.58,334.82,1198.58Z" style="fill:#c8afa0;fill-rule:evenodd"/><path d="M2035.05,1222.57H2152.5c4,0,7.25,2.7,7.25,6s-3.26,6-7.25,6H2035.05c-4,0-7.25-2.7-7.25-6s3.26-6,7.25-6m164.5-24H2317c4,0,7.25,2.7,7.25,6s-3.26,6-7.25,6H2199.55c-4,0-7.25-2.7-7.25-6S2195.57,1198.58,2199.55,1198.58Zm-15.82,25.7h138.8c4.71,0,8.57,2.7,8.57,6s-3.86,6-8.57,6h-138.8c-4.71,0-8.57-2.7-8.57-6S2179,1224.29,2183.74,1224.29Zm-159.36-25.7h138.8c4.71,0,8.57,2.7,8.57,6s-3.86,6-8.57,6h-138.8c-4.71,0-8.57-2.7-8.57-6S2019.66,1198.58,2024.38,1198.58Z" style="fill:#c8afa0;fill-rule:evenodd"/><path d="M990.6,2745h0c-3.47-.31-6.54,1.41-6.81,3.82l-25.93,226.23c-0.28,2.41,2.34,4.63,5.81,4.94s6.53-1.41,6.81-3.82L996.41,2750c0.28-2.41-2.34-4.63-5.81-4.94" style="fill:#c8afa0;fill-rule:evenodd"/><path d="M1379.89,2745h0c3.47-.31,6.54,1.41,6.81,3.82l25.93,226.23c0.28,2.41-2.34,4.63-5.81,4.94s-6.54-1.41-6.81-3.82L1374.08,2750c-0.28-2.41,2.34-4.63,5.81-4.94" style="fill:#c8afa0;fill-rule:evenodd"/><path d="M1648.25,2618.69c0.73-.78,2.37-3.77,2.68-3.46l28.65,29.77c0.31,0.32-.84,3.82-1.57,4.6s-1.59,1.15-1.89.83l-28.65-29.77c-0.31-.32.05-1.21,0.79-2" style="fill:#c8afa0;fill-rule:evenodd"/><path d="M707.65,2618.69c-0.73-.78-2.37-3.77-2.68-3.46L676.33,2645c-0.31.32,0.84,3.82,1.57,4.6s1.59,1.15,1.89.83l28.65-29.77c0.31-.32-0.05-1.21-0.79-2" style="fill:#c8afa0;fill-rule:evenodd"/><path d="M631.24,2235.23L488.08,2421.88c-4.86,6.34-6.7,13.16-4.08,15.17s8.74-1.54,13.6-7.87l143.16-186.65c4.86-6.34,6.7-13.16,4.08-15.17s-8.74,1.53-13.6,7.87" style="fill:#c8afa0;fill-rule:evenodd"/><path d="M1734.5,2235.23l143.16,186.65c4.86,6.34,6.7,13.16,4.08,15.17s-8.74-1.54-13.6-7.87L1725,2242.53c-4.86-6.34-6.7-13.16-4.08-15.17s8.74,1.53,13.6,7.87" style="fill:#c8afa0;fill-rule:evenodd"/><path d="M1398.09,1590.77v-40.31l-20.31,20-20,20.31h40.31Zm-184.36,146.3,54.75,55.15c85.45,86.07,129.57,29.93,129.58-52.95l0-102.85-85.17-.07Zm-202.56-146.29-20-20.31-20.31-20v40.31h40.31Zm144.05,146.29L1056,1636.35l-85.17.07,0,102.85c0,82.88,44.13,139,129.58,52.95ZM1056,1118l99.18-100.72-54.75-55.15C1015,876,970.9,932.15,970.88,1015l0,102.85Zm-64.88,65.88,20-20.31H970.85v40.31Zm-66,406.92,0.07-85.17-100.72-99.18-55.15,54.75c-86.07,85.45-29.93,129.57,52.95,129.58Zm518.46-85.17,0.07,85.17,102.85,0c82.88,0,139-44.13,52.95-129.58l-55.15-54.75Zm0.07-342-0.07,85.17,100.72,99.18,55.15-54.75c86.07-85.45,29.93-129.57-52.95-129.58Zm-518.56-45.69-0.08-104.27C925,838.54,1048.24,849.18,1129.84,932l54.63,55.48L1239.1,932c81.6-82.87,204.88-93.51,204.75,81.54l-0.08,104.27,104.27-.08c175.05-.14,164.41,123.15,81.54,204.75l-55.48,54.63,55.48,54.63c82.87,81.6,93.51,204.88-81.54,204.75l-104.27-.08,0.08,104.27c0.14,175.05-123.15,164.41-204.75,81.54l-54.63-55.48-54.63,55.48c-81.6,82.87-204.88,93.51-204.75-81.54l0.08-104.27-104.27.08c-175.05.14-164.41-123.15-81.54-204.75l55.48-54.63-55.48-54.63c-82.87-81.6-93.51-204.88,81.54-204.75Zm0.1,130.86-0.07-85.17-102.85,0c-82.88,0-139,44.13-52.95,129.58l55.15,54.75Zm472.8-130.83,0-102.85c0-82.88-44.13-139-129.58-52.95l-54.75,55.15L1312.9,1118Zm0,86v-40.31h-40.31l20,20.31Zm-284.4,432.46,70.78,71.3,70.78-71.3-70.78-.06ZM1255.25,1118l-70.78-71.3-70.78,71.3,70.78,0.06ZM925.32,1306.37L854,1377.15l71.3,70.78,0.06-70.78Zm518.3,141.56,71.3-70.78-71.3-70.78-0.06,70.78Zm-259.15,142.88,115.25,0,49.37-49,49-49.37,0-115.25,0-115.25-49-49.37-49.37-49-115.25,0-115.25,0-49.37,49-49,49.37,0,115.25,0,115.25,49,49.37,49.37,49Z" style="fill:#2e3191;fill-rule:evenodd"/><path d="M1184.47,1294a83.13,83.13,0,1,0,83.13,83.13,83.13,83.13,0,0,0-83.13-83.13" style="fill:#e2000f;fill-rule:evenodd"/><path d="M1776.75,571.31c-4.17-1.27-10.94.82-20.4,6.31l-12.4,6.9q-41.8,29.72-27,49.3,4.89,7.11,20.27,8.79l36.18-3.25q19.67,0.72,19,7.93c-0.39,4.79-2.4,9.91-6,15.33-4.76,6.73-7.82,12.35-9.24,16.78a35,35,0,0,0,5.74,24l-0.12.08,20.69,30.11q12.9,18.77,33.26,12.66c-5.93,6.81-8.4,12.8-7.36,18.06a47.24,47.24,0,0,0,6.38,15.55q2.71,4.36,5.64,8.8l-0.07,0q1.07,1.56,2.11,3,1.3,1.93,2.63,3.88l0.11-.08q9.74,13.19,16.13,17.39c5.27,3.53,12.65,3.14,22-1.11q-12.69,16.76,1.34,41.45l8.62,12.55,0.22-.15c53.51,78.05,45,48,98.56,126.08,25.26,30.57,74.14,8,64.44-44.82-5.36-29.2-78.88-114.31-69.1-124.59,5.59,0,13.77,3,24.73,8.86a197.73,197.73,0,0,1,21.47,12.89c8.27,5.87,16.63,11.53,24.92,17.27,10.86,7.51,18.29,13.78,22.54,18.51,1.17,23.46,59.56,18.82,21.69-13.12a283.49,283.49,0,0,0-32.75-24.11q-40.36-25.16-73.54-31.88c-20.22-4.1-32.22-4.72-36-2.12-3.53,2.42-4.73,6.31-3.81,11.6,5,28.69,23.33,53.29,36.08,67.82,66.48,75.75,45.8,116.88,12.4,74.61l-93.75-118.61-0.33.23a46,46,0,0,1-6.93-16.73c-1.25-7.18,1-13.44,6.59-18.76s61.42-47.95,123.31-97.05l-39.08,4.3c-42.76,35.68-88.14,70.8-92,74.4a42.28,42.28,0,0,1-14.09,8.5q-7.15,2.73-21.69-18.48l0,0-2.24-3.27q-1.15-1.75-2.33-3.64l-0.11.08a41.32,41.32,0,0,1-6.51-15.4c-1.06-5.52-.27-9.42,2.34-11.71a67.12,67.12,0,0,1,9.37-6.6c3.63-2.11,5.42-4.22,5.31-6.33s-2.23-3.49-6.39-4.1a50.34,50.34,0,0,0-15.55.69c-6.19,1.07-10.82.9-14-.55s-7.92-6.17-14.46-14.07L1810,695.69l0.45-.32-3.91-5.69c-4.13-5.2-5.43-10.17-3.83-14.84a61.86,61.86,0,0,1,6.58-12.45,101.42,101.42,0,0,1,9-12c2.27-3.85,2.05-8.39-.69-13.6-4.4-5.18-12-8.74-22.71-10.8s-22.39-2-35,.09-20.29.21-23-5.63q-7.41-9.81,10.26-27.48a145.32,145.32,0,0,1,29.6-21.68" style="fill:#fff;fill-rule:evenodd"/><path d="M1891.35,591.3l-25.09-1.58c-2.3-7.57-3-17.33-2.07-29.17l-18.69-2.18a90,90,0,0,1-1.76-29l26.74,3a138.83,138.83,0,0,0-.16,27.63l20.29,3.37q-1.61,16.18.73,28M1825.2,804.21L1800,802.73c-2.19-7.65-2.9-17.38-2.07-29.17l-18.68-2.24a88.1,88.1,0,0,1-1.68-29.1l26.65,3.13a148.21,148.21,0,0,0-.15,27.57l20.31,3.41C1823.26,787.07,1823.51,796.38,1825.2,804.21Z" style="fill:#fff;fill-rule:evenodd"/><path d="M1311.05,2872.5a57.39,57.39,0,0,1-14.56-1.57,43.35,43.35,0,0,1-11.44-5,26.26,26.26,0,0,1-8.11,5.3c-2.35.83-5.92,1.27-10.67,1.27h-12.75a10.52,10.52,0,0,1-8.29-3.44c-2-2.27-3.84-6.07-5.47-11.34-2.85,5.47-6,9.41-9.55,11.74a18.77,18.77,0,0,1-10.8,3h-11.09v-0.17a48.06,48.06,0,0,1-9.17-1.4,43.36,43.36,0,0,1-11.44-5,26.26,26.26,0,0,1-8.11,5.3c-2.35.83-5.92,1.27-10.67,1.27h-12.75a10.52,10.52,0,0,1-8.29-3.44c-2-2.27-3.84-6.07-5.47-11.34-2.85,5.47-6,9.41-9.55,11.74a18.77,18.77,0,0,1-10.8,3h-71.21a121.5,121.5,0,0,1-12.51-.4,23.21,23.21,0,0,1-6.69-2c-4.27-1.83-7.76-5.54-10.53-11.14a42,42,0,0,1-4.13-18.75c0-2.67.11-5.07,0.32-7.17a62.42,62.42,0,0,1,1.25-7.47,74.26,74.26,0,0,1,3-10.68,98,98,0,0,1,5.84-11.61l4.32,4.2a91.88,91.88,0,0,0-4.56,12.11,33.74,33.74,0,0,0-1.2,8.81,17.9,17.9,0,0,0,2.85,9.91,13.13,13.13,0,0,0,7.44,5.77,36.89,36.89,0,0,0,7.15,1.33,81.57,81.57,0,0,0,9.23.5H1109a92.56,92.56,0,0,0-3.55-10.51,79.15,79.15,0,0,0-5.25-9.41l6.8-22.72q6,10.46,7.76,19.15c1.07,5.07,1.6,12.58,1.6,22.45v1h5.73a18,18,0,0,0,13.63-5.77c4.72-5,7.09-12.64,7.09-22.85l5.12,1c-0.11,2.07-.21,4.47-0.32,7.14s-0.16,5.6-.16,8.87a12.78,12.78,0,0,0,2.75,8.31,8,8,0,0,0,6.24,3.3h9.63c6.35,0,10.88-1.1,13.57-3.34,3.28-2.67,4.93-7.64,4.93-14.95a7.72,7.72,0,0,1,1.2-4.2,23.22,23.22,0,0,1,2.91-3.2l3-2.94c0.08,1.23.13,2.94,0.19,5.07s0.05,3.5.05,4.17a110.68,110.68,0,0,1-1.25,14.38,36,36,0,0,0,6.48,3,45,45,0,0,0,7.57,2,26.72,26.72,0,0,0-1.92-8.64c-1.28-3.5-1.92-5.9-1.92-7.14a11.65,11.65,0,0,1,.53-3.94,26.91,26.91,0,0,1,1.73-3l6.61-11.28a74.42,74.42,0,0,1,3,11.18,71.77,71.77,0,0,1,.91,12.54v10.31h5.73a18,18,0,0,0,13.63-5.77c4.72-5,7.09-12.64,7.09-22.85l5.12,1c-0.11,2.07-.21,4.47-0.32,7.14s-0.16,5.6-.16,8.87a12.78,12.78,0,0,0,2.75,8.31,8,8,0,0,0,6.24,3.3h9.63c6.35,0,10.88-1.1,13.57-3.34,3.28-2.67,4.93-7.64,4.93-14.95a7.72,7.72,0,0,1,1.2-4.2,23.22,23.22,0,0,1,2.91-3.2l3-2.94c0.08,1.23.13,2.94,0.19,5.07s0.05,3.5.05,4.17a110.67,110.67,0,0,1-1.25,14.38,35.94,35.94,0,0,0,6.48,3,45,45,0,0,0,7.57,2,26.72,26.72,0,0,0-1.92-8.64c-1.28-3.5-1.92-5.9-1.92-7.14a11.65,11.65,0,0,1,.53-3.94,27,27,0,0,1,1.73-3l6.61-11.28a74.41,74.41,0,0,1,3,11.18,71.75,71.75,0,0,1,.91,12.54v36.93Zm29-28.42a71.75,71.75,0,0,1-1.65,15.91,148.08,148.08,0,0,1-6.43,19.32l-4.72-2.4a139.92,139.92,0,0,0,1.92-20.35c0-4-.27-9.81-0.77-17.48s-1.17-15.31-2-22.85-2.05-16.51-3.84-26.92a55.9,55.9,0,0,1-.93-7.54c0-2,.8-5.44,2.43-10.31s3.87-10.74,6.77-17.65l4.75,34.63q2.64,19.77,3.65,34.23Q1340.07,2833.82,1340.07,2844.08Zm-0.16-102.69a12.81,12.81,0,0,1-2,4.27,6.41,6.41,0,0,1-2.67,1.73l-16.91,6.41a21.94,21.94,0,0,1,2.75-5,9.71,9.71,0,0,1,4.27-2.37,14.2,14.2,0,0,1-3.15-3.27,5.25,5.25,0,0,1-1-2.94,8.39,8.39,0,0,1,.61-2.87,19.53,19.53,0,0,1,1.63-3.14q5.08-8.41,10-8.41a2.84,2.84,0,0,1,2.37,1.2,5.33,5.33,0,0,1,.88,3.17,8.73,8.73,0,0,1-.35,2.67,28.43,28.43,0,0,1-1.44,3.37c-2.56-1.6-4.32-2.4-5.25-2.4a5.29,5.29,0,0,0-2.77.87,7.38,7.38,0,0,0-1.71,1.57c0,0.87,1.25,2.17,3.73,3.94s4.29,2.64,5.36,2.64A30.15,30.15,0,0,0,1339.91,2741.39ZM1088.84,2780l-8.59,19.88-11.09-7.87-6.27,15.48-14.53-10,8.13-19,11.55,7.27,6.56-15.68Z" style="fill:#fff;fill-rule:evenodd"/><path d="M751,2884.1l-22.64,9.71q-11.76-12.84-14.72-17.23-8.06-11.91-5.11-20.62c0.86-2.53,4.83-5.65,11.83-9.37,3-1.58,8-4.12,14.91-7.58l-8-11.23c-3.7-5.21-5.05-9.21-4.07-12.08q2.24-6.55,18.92-13.54c2.5-1,10.29-4.09,23.31-9.18l-1.14,3.34c-2.07,6.07-4.57,9.69-7.53,10.84-4.18,1.22-8.41,2.38-12.64,3.55q0.88,2.82,9.31,12.34,7.07,8.11,5.8,11.81-1.33,3.9-13.54,10.87c-8.13,4.64-12.24,7.07-12.31,7.27-0.61,1.8,1.77,6.93,7.12,15.27,0.49,0.76,4,6,10.53,15.84m68.21-11-20.74,20.19c-3.61-7.11-5.95-11.6-7.07-13.43a79.26,79.26,0,0,0-9.71-11.91l20.34-21.21,1.07,0.36c-0.37-.12.45,0.64,2.5,2.27Q815.38,2857.27,819.24,2873.11Zm75.87,48.22-14.21,24.95q-14-10-6.58-64.77-25.37,47.2-44.42,47.37l4-28.43q17.18-8.44,30.74-27.35,6.6-9.53,23.88-34.2c0.93,2.85,1,9.11.14,18.81-1.13,12.5-1.53,22.08-1.22,28.81A98.4,98.4,0,0,0,895.1,2921.32Zm-208.52-82.14q-7.06,20.72-19.41,34.19l-0.64-1q4.29-35,4.66-42.5,1.25-23.82-3.54-42.13l18.47-18.24q4.4,14,4.57,34.85C690.88,2819.05,689.48,2830.68,686.58,2839.19Z" style="fill:#fff;fill-rule:evenodd"/><path d="M1520.75,2854.72c-0.69-2-2.6-4.5-5.75-7.61-3.37-3.41-5.92-4.82-7.62-4.23a13.15,13.15,0,0,0-8.29,7.86c-1.07,2.58-1.54,4-1.42,4.35,0.94,2.66,3.87,4.39,8.75,5.21a20.93,20.93,0,0,0,10.9-.44c3.09-1.09,4.24-2.8,3.42-5.13m43.31,35.29-4.95,22.22q-8,1.64-19.56-21.24a263.12,263.12,0,0,1-11.86-28.33c-0.52,3.4-1.29,7.67-2.24,12.82-0.88,4.83-3.42,8-7.71,9.52a20.48,20.48,0,0,1-14.62-.12,16.19,16.19,0,0,1-10.17-10.2c-2.54-7.21-3.3-16.77-2.32-28.74q1.54-20.44,10.47-23.61,13.16-4.64,25.27,15.72,4.71,8.43,17.08,30.11Q1546.1,2872.95,1564.06,2890Zm81.11-38,4.29,28.38q-17.21.8-45.27-46.78,9.3,52.77-5.55,64.7l-14.46-24.8q8.26-17.26,7.21-40.51-0.72-11.57-2.42-41.63c2.49,1.66,6.39,6.57,11.76,14.69,6.85,10.52,12.46,18.29,16.88,23.39A98.4,98.4,0,0,0,1645.16,2852Zm-170.69,49.12q7.28,20.64,5.93,38.87l-1.1-.36q-18.31-30.15-22.65-36.26-13.76-19.48-28.87-30.89l3.21-25.76q12.1,8.24,25.17,24.54C1465.39,2882.64,1471.49,2892.64,1474.47,2901.11ZM1729,2822.44l4.29,28.38q-17.21.8-45.27-46.78,9.3,52.77-5.55,64.7l-14.46-24.8q8.26-17.26,7.21-40.51-0.72-11.57-2.42-41.63c2.49,1.66,6.39,6.57,11.76,14.69,6.85,10.52,12.46,18.29,16.88,23.39A98.4,98.4,0,0,0,1729,2822.44Z" style="fill:#fff;fill-rule:evenodd"/><path d="M1055.88,2398.76l4.77-39.33,31.95,3.87-4.77,39.33Zm56.26-200.47,34-1.53,5,112.1q1.2,26.72,2.81,34.52c1.83,8.41,5.54,15.09,11.17,20s13.18,7.13,22.56,6.7,16.59-3.16,21.22-8.24a30.46,30.46,0,0,0,7.92-18.26q1-10.68-.1-35.22l-5.15-114.5,34-1.53,4.89,108.78q1.68,37.27-.37,52.8t-9,26.46a52.19,52.19,0,0,1-18.91,17.74c-8.06,4.56-18.69,7.16-31.94,7.76q-24,1.08-36.68-5.2a54.65,54.65,0,0,1-20.4-16.93,62.76,62.76,0,0,1-10.5-22.54q-4.14-17.62-5.69-52.38ZM1290,2392.39l-6-39.16,31.81-4.89,6,39.16Zm143.56-116.27,35.13,1.52q3.51,34.85-8.05,56.14t-37.24,29.73q-31.85,10.49-61.18-9.53t-44.62-66.5q-16.18-49.1-4.54-83.1t45.22-45q29.34-9.67,54.68,5.69,15.09,9,28.32,30.91l-28.83,19.85q-7.87-14.31-19.77-20.23a31.66,31.66,0,0,0-24.78-1.63q-17.79,5.86-23.68,25.21t5.66,54.47q12.26,37.22,28.38,49.47t33.59,6.49q12.88-4.25,18.84-17.37C1434.68,2303.42,1435.67,2291.42,1433.59,2276.12Zm-569.94,86.94L908.83,2161l49.79,11.13-1.39,144.4,59.89-131.33,49.9,11.15-45.17,202.08-30.72-6.87,35.45-159.11-67.93,151.85-31.94-7.14,3.35-166.29-35.68,159.06Z" style="fill:#00adef;fill-rule:evenodd"/><path d="M2255.38,1544.59l-329.52-80q6.75-35.73,10.08-72.59l333.94,61.23c-3.55,30.36-8.7,60.82-14.51,91.33m-51.79,190.19c-88-30.11-218.38-85.94-320.63-124.72q13.94-34.15,24.59-69.89c104.11,32.22,235.53,81.56,324.54,104.27C2223.88,1675.39,2214.91,1704.88,2203.59,1734.78Zm-81.15,168c-85.31-46-207.47-115.36-304.25-168.33q19.85-30.79,36.76-63.56c100.08,46.42,222.62,108,310,146.32A921.06,921.06,0,0,1,2122.43,1902.83ZM2019,2055.42c-79.1-59.55-199.36-142-289.18-208.59q25.27-26.59,47.93-55.55c215.26,136.3,264,164.93,296.06,186Zm-130.71,148-266.09-262.76q29.45-21.2,56.74-45.07l274.4,237.08Z" style="fill:#e66e15;fill-rule:evenodd"/><path d="M1181,593.14C1080.55,445,912,531.64,756.3,475L850.12,4.63c106.1,36,186.35,39.57,297.85,31.17,0.83,22.89,65.28,22.91,66.11,0,111.5,8.4,184.74,8.25,290.85-27.74l99.85,466.68C1449.12,531.43,1281.5,445,1181.06,593.14l0,0Z" style="fill:#fff;fill-rule:evenodd"/><path d="M1181,593.14C1080.55,445,912,531.64,756.3,475L850.12,4.63c106.1,36,186.35,39.57,297.85,31.17,0.83,22.89,65.28,22.91,66.11,0,111.5,8.4,184.74,8.25,290.85-27.74l99.85,466.68C1449.12,531.43,1281.5,445,1181.06,593.14l0,0Z" style="fill:none;stroke:#1a1a18;stroke-miterlimit:22.92558479309082;stroke-width:4px"/><path d="M948.48,220.23C943,207.89,935.81,193.29,926,184.69l-2.62.54,0.15,1.42c-6.47,2.63-10.6-1.4-15.4-5.79-1.19-5.32,2.29-12,4.17-16.87,11-3,19.22,7.47,25.27,16.19,8.6,17.49,8.6,17.49,9.08,16.93-0.28-11.09-6.36-56.53,14.31-51.4,6.9,7.15,7.38,9.08,6.55,19.09-4.18,1.15-6.65-1.63-10.32-3.85-1.1.48-2.18,1-3.21,1.55-3.58,15.13-2,31.2-1.59,46.63-0.59,4-.51,9-3.93,11.09m336.79,233,0.08-.83c28.32-9.86,28.32-9.86,34.61-12.46,6.42-3.67,12.27-6.86,17.87-11.89,2-3.23,4-6.45,6-9.67,3-.31,3.95-2.48,6-4.89,9.9-3.26,10.22,15.84,3.59,19.54-4.47-.52-7.61-4.83-10.69-8.08l-3.81,7.58a64.41,64.41,0,0,1-28.11,17.61C1298.2,452,1298.2,452,1285.27,453.24Zm68.32-26.61-5.4-4.78c0-.36.09-0.71,0.15-1,1.49-.82,2.41-0.53,4.09-0.33,1.31,2.47,1.92,3.41,1.9,6.23Zm-188.9,37.56c2.16-1.68,9.75-5.22,16.4-9,15.16-11.09,27.25-27.84,46.26-30.17,2.61,0.4,5.26.86,7.9,1.31,6.5-5.82,17.83-17.6,27-12.16,5.8,11.36-4.35,19.21-12.17,23.79-10.79,2.82-18.89-.22-29.66-2.06-15,2.14-26.33,14.67-38.06,24.29A69,69,0,0,1,1164.69,464.19Zm73.56-35.74c2.68-6.34,12.9-8.42,18.5-7.47,0.86,0.58,1.76,1.17,2.66,1.76l-0.31,2.21C1252.14,428.48,1245.78,428.78,1238.25,428.46Zm-115.9-248.69c-5.48-12.34-12.67-26.94-22.47-35.54l-2.62.54,0.15,1.42c-6.47,2.63-10.59-1.4-15.4-5.79-1.19-5.32,2.29-12,4.17-16.87,11-3,19.22,7.47,25.27,16.19,8.6,17.49,8.6,17.49,9.08,16.93-0.28-11.09-6.36-56.53,14.31-51.4,6.9,7.15,7.38,9.08,6.55,19.09-4.17,1.15-6.65-1.63-10.32-3.85-1.1.48-2.18,1-3.21,1.55-3.58,15.13-2,31.2-1.59,46.63C1125.69,172.66,1125.77,177.67,1122.36,179.77Zm65-11.49c1.69-5.76,3.44-11.53,5.19-17.29l139.84-57.29c2-.49,4-1,6.07-1.46-2.13,5.69-3.25,11.32-7.82,14.93Q1259,137.68,1187.38,168.27ZM996,217.6c0.07-.56.15-1.12,0.23-1.63,2.23-2.9,2.23-2.9,29-28.52,3.74-4.2,16.89-16.3,17.25-22.42-16.19-6-13.34-17.47-4.7-29.86,13.9-11.49,14,9.4,13,20.13,9.58,3.82,7.78,5.58,4.94,15.37l-1.55.31a6.48,6.48,0,0,0-6.54-3c-3,5-5.92,9.94-8.84,14.93a183.59,183.59,0,0,1-19.55,19.6C997.68,216.91,997.68,216.91,996,217.6Zm49.29-64c-3.88-1.5-6.85-3.41-7.93-3.46l-0.77-3.25c1.92-3.06,4-3.33,7-3.62,1.56,3.1,1.84,6.31,2.36,9.8C1045.76,153.25,1045.54,153.43,1045.33,153.61Zm276.32,70.55c-8.79-4.84-18.88-15.45-27.45-18.62a7.61,7.61,0,0,1,1.38-7.59c4.29-8.53,8.81-16.6,13.11-25.09,2-7.65,32.56,10.83,35.58,20.15-0.28.76-.55,1.53-0.82,2.3C1340.52,199.28,1328,222.45,1321.65,224.15ZM1024.44,331.81c-0.22-5.75,5.71-9.82,10.32-7.72,3.21,2.88,8.19,7.86,5.73,9.42C1036.62,336,1028,335.5,1024.44,331.81Zm139.46,43.56a3.25,3.25,0,0,1,1.38-1.77c8.73-9.85,43.38-39.33,48.36-41.77,17.21-9.27,37.14-4.58,52.4,7.05a20.73,20.73,0,0,1,5.17,7.29C1249.91,376.13,1193.13,381.27,1163.9,375.37ZM906.76,448.6c-6.45-10-9.69-17.92-9.17-30.12l-0.64,0c-8.8,4.59-18,8.31-26.65,13.14a19.32,19.32,0,0,0-4.93,2.19l-72.47-6.36q-4.67-2-.64-5.43c35.79-11.06,74.24-19.63,107.66-38.07,1.36-7,7.66-44.86,10.2-47.55l3.62-3.84c1.37-1.46,2.7-1.2,2.87.77-4,12.29-2,30-1.28,42.73,19.13-4.45,36.82-16.82,50.58-29.54,2.18-2,1.24-6.11,1.24-9.25-4.27-26.87-12.41-38.11-20.73-62.85,0-1.89-.55-5.52,1.32-6.74,3.51-7.31,12.07-35.9,22-26.72,5.36,7.83,8.42,14.84,16.59,19.41,5.33,3-7.88,27.21-8.79,29.36a2.92,2.92,0,0,0,.2,2.19c1.79,16.82,10.2,19.49,9.1,36.79-0.08,1.34,0,3.76-.58,4.83-0.68,4.54-2.6,8.74-3.75,13.14-13.11,28.88-30.16,38-52.63,53.8-3.06,2.16-7,3.25-9.82,5.74,16.83,46.8,111.6,8.37,125-27.33a72.16,72.16,0,0,0-.68-10.52c-3,.17-5.67,1.21-8.69,1.86-5,1.09-38.71,1.82-41.07-8.22h-0.4c-7.87-21.8,21.21-66.09,34.76-78.56,23.17-21.31,37,33.24,41.79,46,0.41,0,.82,0,1.24.06,24.07,1.09,46.66-46.72,48.38-40.66-1.37,26.21-8.39,43.34,11.46,71.22,2.46,3.45,12.91,12,17.41,11.66,0.21-.79,8.85-8.67,10-9.8,24.92-23.81,56.83-64.36,86.69-72.53,18.53-5.07,57.68,1.78,61.5,31.67-3.6,16.6-18.4,33.28-29.77,44.64v0.55c20.38,2.92,33.51-32.36,44.48-43.22v-0.66c1.93-1,3.2-.76,5.13.11,7.47,8.29-11.77,24.15-.2,30.91,26.11,27.17,59.23-37.94,79.37-43.94v-0.66h0.4c-0.17-2.86-.34-5.7-0.5-8.54-1.86-8.74-2.67-17.31-5.33-26.08-1.46-9.13-14.8-95.6-16.43-96.82-6.91,2.83-22.63,19.59-27.89,22.85-13-9.48,16.33-32.12,20.14-35.28,1.56-1.07,5.1-3.08,6-4.92,0-18.91-6.52-23.38-11.84-39v-3.08c9.17-11.2,15.42-31.7,27.35-39.78,3.7-.71,16.06,28,19.65,33.86v2.41c-4.69,9.75-9.82,19.24-14.61,28.92,0,0.65-.07,1.31-0.1,2l1.78-.76c8-5.06,15.13-10.28,20.14-17.1,8.13-10.2,19.72,3.58,1.58,18.3-4.86,5-19.21,12.54-21.52,17.09,0,1.17-.07,2.34-0.1,3.52,4.54,40.81,13.62,84,20.33,124.25-0.13.54-.26,1.09-0.38,1.64,0,27.62,19.24,38.54,41.55,48a3.82,3.82,0,0,1,1.29,3.19,5.66,5.66,0,0,0-.4.44l-24.78,26.29-42.06-21.81c-2.25,0-3.62,4.23-4.83,6-14.22,28.19-44.74,46.46-73.35,38.47-3.75-1-10.93-2.42-13.28-6.42-1.72-2.93-2.33-1.58-4.49.06-48.24,26.43-106.79,31.94-158.73,17.53a42.61,42.61,0,0,0-5.43-2.41c-5,4.21-33,31.11-35.34,20.72a0.83,0.83,0,0,1,.68-0.66c4.39-4.47,19.7-17.11,22.32-22,1-1.5,1.88-1.74,1.88-3.83-15.06-13.31-28.25-23.07-30.41-46.23-0.24-1-.47-2.05-0.7-3.08-1.52.25-2.87,2.49-3.85,3.72a6,6,0,0,0-1.58,1.75,71.16,71.16,0,0,1-26.41,13.1c-0.21.82-.43,1.64-0.64,2.48-3.89,54-75.88,85.48-110.27,95.65C937,466.07,922.31,460.93,906.76,448.6Zm586.59-266.14c0.09-1.18.17-2.34,0.27-3.51,2.53-4.41,17.22-11.07,22.31-15.79,18.82-13.63,7.92-28.08-.69-18.37-5.22,6.18-12.65,11-20.94,15.88l-1.81.65c0.06-.66.12-1.32,0.19-2,5.26-9.38,10.84-18.56,16-28l0.12-2.41c-3.3-6.07-14.26-35.47-18-35-12.3,7.36-19.54,27.46-29.23,38.1l-0.15,3.07c4.57,15.92,10.86,20.77,9.95,39.65-1,1.79-4.63,3.58-6.24,4.56-4,2.92-34.34,23.8-21.81,34,7.94-3.37,22.16-18.47,29-21.16,0.7,0.58.42,6.61,0.42,8.76,18.42,120.06,33.2,171.76-86.26,215.14,0,0.27-2.72,1.39-2.73,1.67a79.88,79.88,0,0,0-7.63,3.93c0.23,4.21,23.86.87,27.51,0.84C1531.16,421.35,1498.47,285.35,1493.34,182.46Z" style="fill:#1a1a18;fill-rule:evenodd"/></svg>